STARTFONT 2.1
FONT -FontForge-Bitstream Vera Sans Mono-Book-R-Normal-SansMono--32-310-75-75-P-189-ISO8859-1
SIZE 31 75 75
FONTBOUNDINGBOX 20 38 0 -8
COMMENT "Generated by fontforge, http://fontforge.sourceforge.net"
COMMENT "Copyright (c) 2003 by Bitstream, Inc. All Rights Reserved."
STARTPROPERTIES 40
FOUNDRY "FontForge"
FAMILY_NAME "Bitstream Vera Sans Mono"
WEIGHT_NAME "Book"
SLANT "R"
SETWIDTH_NAME "Normal"
ADD_STYLE_NAME "SansMono"
PIXEL_SIZE 32
POINT_SIZE 310
RESOLUTION_X 75
RESOLUTION_Y 75
SPACING "P"
AVERAGE_WIDTH 189
CHARSET_REGISTRY "ISO8859"
CHARSET_ENCODING "1"
FONTNAME_REGISTRY ""
CHARSET_COLLECTIONS "ISO8859-9 ISOLatin1Encoding"
FONT_NAME "BitstreamVeraSansMono-Roman"
FACE_NAME "Bitstream Vera Sans Mono"
COPYRIGHT "Copyright (c) 2003 by Bitstream, Inc. All Rights Reserved."
FONT_VERSION "Release 1.10"
FONT_ASCENT 24
FONT_DESCENT 8
UNDERLINE_POSITION -4
UNDERLINE_THICKNESS 3
X_HEIGHT 17
CAP_HEIGHT 22
RAW_ASCENT 759
RAW_DESCENT 240
NORM_SPACE 19
RELATIVE_WEIGHT 40
RELATIVE_SETWIDTH 50
SUPERSCRIPT_X 0
SUPERSCRIPT_Y 9
SUPERSCRIPT_SIZE 19
SUBSCRIPT_X 0
SUBSCRIPT_Y -6
SUBSCRIPT_SIZE 19
FIGURE_WIDTH 19
AVG_LOWERCASE_WIDTH 190
AVG_UPPERCASE_WIDTH 190
ENDPROPERTIES
CHARS 269
STARTCHAR space
ENCODING 32
SWIDTH 602 0
DWIDTH 19 0
BBX 1 1 0 0
BITMAP
00
ENDCHAR
STARTCHAR exclam
ENCODING 33
SWIDTH 602 0
DWIDTH 19 0
BBX 3 23 8 0
BITMAP
E0
E0
E0
E0
E0
E0
E0
E0
E0
E0
E0
E0
E0
E0
E0
00
00
00
00
E0
E0
E0
E0
ENDCHAR
STARTCHAR quotedbl
ENCODING 34
SWIDTH 602 0
DWIDTH 19 0
BBX 9 9 5 14
BITMAP
E380
E380
E380
E380
E380
E380
E380
E380
E380
ENDCHAR
STARTCHAR numbersign
ENCODING 35
SWIDTH 602 0
DWIDTH 19 0
BBX 19 23 0 0
BITMAP
00C380
00C300
01C300
01C700
018700
018600
3FFFE0
3FFFE0
3FFFE0
030E00
070C00
070C00
061C00
061800
FFFF80
FFFF80
FFFF80
0C3800
0C3000
1C3000
1C7000
187000
186000
ENDCHAR
STARTCHAR dollar
ENCODING 36
SWIDTH 602 0
DWIDTH 19 0
BBX 15 30 3 -5
BITMAP
0300
0300
0300
0300
0FE0
3FF8
7FF8
F318
E300
E300
E300
E300
7300
7F80
3FF0
07F8
033C
031E
030E
030E
030E
C33C
FFFC
FFF8
3FE0
0300
0300
0300
0300
0300
ENDCHAR
STARTCHAR percent
ENCODING 37
SWIDTH 602 0
DWIDTH 19 0
BBX 18 23 1 0
BITMAP
1E0000
7F8000
618000
C0C000
C0C000
C0C000
C0C000
618080
7F8380
1E0F00
007800
01E000
078000
3C1E00
707F80
406180
00C0C0
00C0C0
00C0C0
00C0C0
006180
007F80
001E00
ENDCHAR
STARTCHAR ampersand
ENCODING 38
SWIDTH 602 0
DWIDTH 19 0
BBX 18 23 1 0
BITMAP
03F000
0FF800
0FF800
1E0800
1C0000
1C0000
1C0000
0E0000
0F0000
0F0000
1F8000
3BC1C0
71E1C0
E0F1C0
E0F1C0
E07980
E03F80
F01F00
F00E00
7C1F00
3FFF00
1FF380
07C3C0
ENDCHAR
STARTCHAR quotesingle
ENCODING 39
SWIDTH 602 0
DWIDTH 19 0
BBX 3 9 8 14
BITMAP
E0
E0
E0
E0
E0
E0
E0
E0
E0
ENDCHAR
STARTCHAR parenleft
ENCODING 40
SWIDTH 602 0
DWIDTH 19 0
BBX 7 29 7 -5
BITMAP
0E
0C
1C
18
38
38
70
70
70
60
E0
E0
E0
E0
E0
E0
E0
E0
E0
60
70
70
70
38
38
18
1C
0C
0E
ENDCHAR
STARTCHAR parenright
ENCODING 41
SWIDTH 602 0
DWIDTH 19 0
BBX 7 29 6 -5
BITMAP
E0
60
70
30
38
38
1C
1C
1C
0C
0E
0E
0E
0E
0E
0E
0E
0E
0E
1C
1C
1C
1C
38
38
30
70
60
E0
ENDCHAR
STARTCHAR asterisk
ENCODING 42
SWIDTH 602 0
DWIDTH 19 0
BBX 14 14 3 9
BITMAP
0300
0300
4308
E31C
7B78
1FE0
0780
0780
1FE0
7B78
E31C
4308
0300
0300
ENDCHAR
STARTCHAR plus
ENCODING 43
SWIDTH 602 0
DWIDTH 19 0
BBX 17 17 1 2
BITMAP
01C000
01C000
01C000
01C000
01C000
01C000
01C000
FFFF80
FFFF80
FFFF80
01C000
01C000
01C000
01C000
01C000
01C000
01C000
ENDCHAR
STARTCHAR comma
ENCODING 44
SWIDTH 602 0
DWIDTH 19 0
BBX 6 9 6 -4
BITMAP
3C
3C
3C
3C
38
70
70
E0
C0
ENDCHAR
STARTCHAR hyphen
ENCODING 45
SWIDTH 602 0
DWIDTH 19 0
BBX 8 3 6 7
BITMAP
FF
FF
FF
ENDCHAR
STARTCHAR period
ENCODING 46
SWIDTH 602 0
DWIDTH 19 0
BBX 4 5 8 0
BITMAP
F0
F0
F0
F0
F0
ENDCHAR
STARTCHAR slash
ENCODING 47
SWIDTH 602 0
DWIDTH 19 0
BBX 15 26 2 -3
BITMAP
000E
001C
001C
0038
0038
0070
0070
0070
00E0
00E0
01C0
01C0
0380
0380
0700
0700
0E00
0E00
1C00
1C00
1C00
3800
3800
7000
7000
E000
ENDCHAR
STARTCHAR zero
ENCODING 48
SWIDTH 602 0
DWIDTH 19 0
BBX 15 23 2 0
BITMAP
07C0
1FF0
3FF8
3C78
783C
701C
F01E
E00E
E00E
E00E
E30E
E78E
E70E
E00E
E00E
E00E
F01E
701C
703C
3C78
3FF8
1FF0
07C0
ENDCHAR
STARTCHAR one
ENCODING 49
SWIDTH 602 0
DWIDTH 19 0
BBX 13 23 4 0
BITMAP
3F00
FF00
FF00
E700
0700
0700
0700
0700
0700
0700
0700
0700
0700
0700
0700
0700
0700
0700
0700
0700
FFF8
FFF8
FFF8
ENDCHAR
STARTCHAR two
ENCODING 50
SWIDTH 602 0
DWIDTH 19 0
BBX 15 23 2 0
BITMAP
3FC0
FFF0
FFFC
C03C
001E
000E
000E
000E
000E
001E
003C
007C
00F8
01F0
03E0
07C0
0F00
1E00
3C00
7000
FFFE
FFFE
FFFE
ENDCHAR
STARTCHAR three
ENCODING 51
SWIDTH 602 0
DWIDTH 19 0
BBX 15 23 2 0
BITMAP
1FC0
7FF0
7FF8
607C
001C
001C
001C
001C
0078
0FF0
0FC0
0FF0
007C
001C
000E
000E
000E
000E
001E
C03C
FFFC
FFF0
3FC0
ENDCHAR
STARTCHAR four
ENCODING 52
SWIDTH 602 0
DWIDTH 19 0
BBX 16 23 2 0
BITMAP
0078
00F8
00F8
01F8
01B8
0338
0738
0638
0E38
1C38
1838
3838
3038
7038
E038
FFFF
FFFF
FFFF
0038
0038
0038
0038
0038
ENDCHAR
STARTCHAR five
ENCODING 53
SWIDTH 602 0
DWIDTH 19 0
BBX 15 23 2 0
BITMAP
7FF8
7FF8
7FF8
7000
7000
7000
7000
7000
7FC0
7FF0
7FF8
407C
001C
000E
000E
000E
000E
000E
001C
C07C
FFF8
FFF0
3FC0
ENDCHAR
STARTCHAR six
ENCODING 54
SWIDTH 602 0
DWIDTH 19 0
BBX 15 23 2 0
BITMAP
07F0
0FF8
1FF8
3E08
7800
7000
7000
F000
E000
E3E0
EFF8
EFFC
F83C
F01E
E00E
E00E
E00E
600E
701E
783C
3FFC
1FF8
07E0
ENDCHAR
STARTCHAR seven
ENCODING 55
SWIDTH 602 0
DWIDTH 19 0
BBX 15 23 2 0
BITMAP
FFFE
FFFE
FFFE
001C
003C
0038
0038
0078
0070
00F0
00E0
00E0
01E0
01C0
03C0
0380
0380
0700
0700
0F00
0E00
0E00
1C00
ENDCHAR
STARTCHAR eight
ENCODING 56
SWIDTH 602 0
DWIDTH 19 0
BBX 15 23 2 0
BITMAP
0FC0
1FF0
3FF8
783C
701C
701C
701C
701C
3838
1FF0
07C0
3FF8
783C
701C
E00E
E00E
E00E
E00E
F01E
783C
7FFC
3FF8
0FE0
ENDCHAR
STARTCHAR nine
ENCODING 57
SWIDTH 602 0
DWIDTH 19 0
BBX 15 23 2 0
BITMAP
0FC0
3FF0
7FF8
783C
F01C
E00C
E00E
E00E
E00E
F01E
783E
7FEE
3FEE
0F8E
000E
001E
001C
001C
003C
20F8
3FF0
3FE0
1F80
ENDCHAR
STARTCHAR colon
ENCODING 58
SWIDTH 602 0
DWIDTH 19 0
BBX 4 17 8 0
BITMAP
F0
F0
F0
F0
F0
00
00
00
00
00
00
00
F0
F0
F0
F0
F0
ENDCHAR
STARTCHAR semicolon
ENCODING 59
SWIDTH 602 0
DWIDTH 19 0
BBX 6 21 6 -4
BITMAP
3C
3C
3C
3C
3C
00
00
00
00
00
00
00
3C
3C
3C
3C
38
70
70
E0
C0
ENDCHAR
STARTCHAR less
ENCODING 60
SWIDTH 602 0
DWIDTH 19 0
BBX 17 16 1 2
BITMAP
000080
000780
001F80
00FE00
03F800
1FC000
FE0000
F80000
F80000
FE0000
1FC000
03F800
00FE00
001F80
000780
000080
ENDCHAR
STARTCHAR equal
ENCODING 61
SWIDTH 602 0
DWIDTH 19 0
BBX 17 10 1 5
BITMAP
FFFF80
FFFF80
FFFF80
000000
000000
000000
000000
FFFF80
FFFF80
FFFF80
ENDCHAR
STARTCHAR greater
ENCODING 62
SWIDTH 602 0
DWIDTH 19 0
BBX 17 16 1 2
BITMAP
800000
F00000
FC0000
3F8000
0FE000
01FC00
003F80
000F80
000F80
003F80
01FC00
0FE000
3F8000
FC0000
F00000
800000
ENDCHAR
STARTCHAR question
ENCODING 63
SWIDTH 602 0
DWIDTH 19 0
BBX 12 23 4 0
BITMAP
1F80
7FC0
FFE0
E0F0
8070
0070
0070
00F0
01E0
03C0
0780
0700
0F00
0E00
0E00
0E00
0E00
0000
0000
0E00
0E00
0E00
0E00
ENDCHAR
STARTCHAR at
ENCODING 64
SWIDTH 602 0
DWIDTH 19 0
BBX 18 27 1 -5
BITMAP
01FC00
07FF00
0F0780
1C0180
3801C0
3000C0
603CC0
60FFC0
61C3C0
C181C0
C300C0
C300C0
C300C0
C300C0
C300C0
C300C0
C181C0
C1C3C0
60FFC0
603CC0
700000
300000
180000
1E0000
078300
03FF00
00FF00
ENDCHAR
STARTCHAR A
ENCODING 65
SWIDTH 602 0
DWIDTH 19 0
BBX 18 23 1 0
BITMAP
01E000
01E000
03F000
03F000
03F000
07F800
073800
073800
0F3C00
0E1C00
0E1C00
0E1C00
1C0E00
1C0E00
1FFE00
3FFF00
3FFF00
380700
780780
700380
700380
F003C0
E001C0
ENDCHAR
STARTCHAR B
ENCODING 66
SWIDTH 602 0
DWIDTH 19 0
BBX 15 23 3 0
BITMAP
FFC0
FFF0
FFF8
E03C
E01C
E01C
E01C
E01C
E038
FFF0
FFC0
FFF8
E03C
E01C
E00E
E00E
E00E
E00E
E01E
E03C
FFFC
FFF8
FFE0
ENDCHAR
STARTCHAR C
ENCODING 67
SWIDTH 602 0
DWIDTH 19 0
BBX 15 23 2 0
BITMAP
03F0
0FFC
1FFE
3E0E
3802
7000
7000
E000
E000
E000
E000
E000
E000
E000
E000
E000
7000
7000
3802
3E0E
1FFE
0FFC
03F0
ENDCHAR
STARTCHAR D
ENCODING 68
SWIDTH 602 0
DWIDTH 19 0
BBX 15 23 2 0
BITMAP
FF80
FFE0
FFF0
E0F8
E03C
E01C
E01C
E00E
E00E
E00E
E00E
E00E
E00E
E00E
E00E
E00E
E01C
E01C
E03C
E0F8
FFF0
FFE0
FF80
ENDCHAR
STARTCHAR E
ENCODING 69
SWIDTH 602 0
DWIDTH 19 0
BBX 14 23 3 0
BITMAP
FFFC
FFFC
FFFC
E000
E000
E000
E000
E000
E000
FFF8
FFF8
FFF8
E000
E000
E000
E000
E000
E000
E000
E000
FFFC
FFFC
FFFC
ENDCHAR
STARTCHAR F
ENCODING 70
SWIDTH 602 0
DWIDTH 19 0
BBX 14 23 3 0
BITMAP
FFFC
FFFC
FFFC
E000
E000
E000
E000
E000
E000
FFF8
FFF8
FFF8
E000
E000
E000
E000
E000
E000
E000
E000
E000
E000
E000
ENDCHAR
STARTCHAR G
ENCODING 71
SWIDTH 602 0
DWIDTH 19 0
BBX 16 23 2 0
BITMAP
03F0
0FFC
1FFE
3E0E
3802
7000
7000
E000
E000
E000
E03F
E03F
E03F
E007
E007
E007
7007
7007
7807
3E0F
1FFF
0FFC
03F8
ENDCHAR
STARTCHAR H
ENCODING 72
SWIDTH 602 0
DWIDTH 19 0
BBX 15 23 2 0
BITMAP
E00E
E00E
E00E
E00E
E00E
E00E
E00E
E00E
E00E
FFFE
FFFE
FFFE
E00E
E00E
E00E
E00E
E00E
E00E
E00E
E00E
E00E
E00E
E00E
ENDCHAR
STARTCHAR I
ENCODING 73
SWIDTH 602 0
DWIDTH 19 0
BBX 13 23 3 0
BITMAP
FFF8
FFF8
FFF8
0700
0700
0700
0700
0700
0700
0700
0700
0700
0700
0700
0700
0700
0700
0700
0700
0700
FFF8
FFF8
FFF8
ENDCHAR
STARTCHAR J
ENCODING 74
SWIDTH 602 0
DWIDTH 19 0
BBX 13 23 2 0
BITMAP
0FF8
0FF8
0FF8
0038
0038
0038
0038
0038
0038
0038
0038
0038
0038
0038
0038
0038
0038
0038
C078
E0F0
FFF0
7FE0
1F80
ENDCHAR
STARTCHAR K
ENCODING 75
SWIDTH 602 0
DWIDTH 19 0
BBX 17 23 2 0
BITMAP
E00F00
E01E00
E03C00
E07800
E07000
E0E000
E1C000
E38000
E70000
EF0000
FF0000
FF8000
F3C000
F1C000
E1E000
E0F000
E07000
E07800
E03C00
E01C00
E01E00
E00F00
E00780
ENDCHAR
STARTCHAR L
ENCODING 76
SWIDTH 602 0
DWIDTH 19 0
BBX 14 23 3 0
BITMAP
E000
E000
E000
E000
E000
E000
E000
E000
E000
E000
E000
E000
E000
E000
E000
E000
E000
E000
E000
E000
FFFC
FFFC
FFFC
ENDCHAR
STARTCHAR M
ENCODING 77
SWIDTH 602 0
DWIDTH 19 0
BBX 17 23 1 0
BITMAP
F80F80
F80F80
F80F80
FC1F80
EC1B80
EC1B80
EE3B80
E63380
E63380
E77380
E36380
E36380
E3E380
E1C380
E1C380
E00380
E00380
E00380
E00380
E00380
E00380
E00380
E00380
ENDCHAR
STARTCHAR N
ENCODING 78
SWIDTH 602 0
DWIDTH 19 0
BBX 15 23 2 0
BITMAP
F00E
F80E
F80E
F80E
FC0E
EC0E
EE0E
EE0E
E70E
E70E
E30E
E38E
E18E
E1CE
E1CE
E0EE
E0EE
E06E
E07E
E03E
E03E
E03E
E01E
ENDCHAR
STARTCHAR O
ENCODING 79
SWIDTH 602 0
DWIDTH 19 0
BBX 16 23 2 0
BITMAP
07E0
1FF8
3FFC
3C3C
701E
700E
F00F
E007
E007
E007
E007
E007
E007
E007
E007
E007
F00F
700E
701E
3C3C
3FFC
1FF8
07E0
ENDCHAR
STARTCHAR P
ENCODING 80
SWIDTH 602 0
DWIDTH 19 0
BBX 15 23 3 0
BITMAP
FFE0
FFF8
FFFC
E03C
E01E
E00E
E00E
E00E
E00E
E01E
E03C
FFFC
FFF8
FFE0
E000
E000
E000
E000
E000
E000
E000
E000
E000
ENDCHAR
STARTCHAR Q
ENCODING 81
SWIDTH 602 0
DWIDTH 19 0
BBX 16 27 2 -4
BITMAP
07E0
1FF8
3FFC
3C3C
701E
700E
F00F
E007
E007
E007
E007
E007
E007
E007
E007
E007
F00F
700E
701E
3C3C
3FFC
1FF8
07F0
0078
003C
001E
0008
ENDCHAR
STARTCHAR R
ENCODING 82
SWIDTH 602 0
DWIDTH 19 0
BBX 17 23 2 0
BITMAP
FFC000
FFF000
FFF800
E07800
E03C00
E01C00
E01C00
E01C00
E03C00
E07800
FFF000
FFC000
FFE000
E0F000
E07800
E03800
E03800
E01C00
E01E00
E00E00
E00F00
E00700
E00780
ENDCHAR
STARTCHAR S
ENCODING 83
SWIDTH 602 0
DWIDTH 19 0
BBX 15 23 2 0
BITMAP
07F0
1FFC
7FFC
780C
F000
E000
E000
E000
F000
7C00
7FC0
1FF0
03FC
003C
001E
000E
000E
000E
001E
C03C
FFFC
FFF8
3FE0
ENDCHAR
STARTCHAR T
ENCODING 84
SWIDTH 602 0
DWIDTH 19 0
BBX 17 23 1 0
BITMAP
FFFF80
FFFF80
FFFF80
01C000
01C000
01C000
01C000
01C000
01C000
01C000
01C000
01C000
01C000
01C000
01C000
01C000
01C000
01C000
01C000
01C000
01C000
01C000
01C000
ENDCHAR
STARTCHAR U
ENCODING 85
SWIDTH 602 0
DWIDTH 19 0
BBX 15 23 2 0
BITMAP
E00E
E00E
E00E
E00E
E00E
E00E
E00E
E00E
E00E
E00E
E00E
E00E
E00E
E00E
E00E
E00E
E00E
E00E
F01E
783C
7FFC
3FF8
0FE0
ENDCHAR
STARTCHAR V
ENCODING 86
SWIDTH 602 0
DWIDTH 19 0
BBX 17 23 1 0
BITMAP
E00380
F00780
700700
700700
700700
380E00
380E00
380E00
3C1E00
1C1C00
1C1C00
1C1C00
0E3800
0E3800
0E3800
0F7800
077000
077000
077000
03E000
03E000
03E000
03E000
ENDCHAR
STARTCHAR W
ENCODING 87
SWIDTH 602 0
DWIDTH 19 0
BBX 19 23 0 0
BITMAP
E000E0
E000E0
E000E0
7001C0
7001C0
7001C0
70E1C0
70E1C0
71F1C0
71B1C0
39B380
39B380
39B380
3BBB80
3B1B80
3B1B80
3F1F80
1F1F00
1E0F00
1E0F00
1E0F00
1E0F00
1E0700
ENDCHAR
STARTCHAR X
ENCODING 88
SWIDTH 602 0
DWIDTH 19 0
BBX 19 23 1 0
BITMAP
7803C0
380780
1C0700
1E0F00
0E0E00
0F1C00
07BC00
03B800
03F800
01F000
00E000
01F000
01F000
03F800
07B800
071C00
0F1E00
1E0E00
1C0F00
3C0780
380380
7803C0
F001E0
ENDCHAR
STARTCHAR Y
ENCODING 89
SWIDTH 602 0
DWIDTH 19 0
BBX 17 23 1 0
BITMAP
F00780
700700
780F00
380E00
3C1E00
1C1C00
0E3800
0F7800
077000
07F000
03E000
03E000
01C000
01C000
01C000
01C000
01C000
01C000
01C000
01C000
01C000
01C000
01C000
ENDCHAR
STARTCHAR Z
ENCODING 90
SWIDTH 602 0
DWIDTH 19 0
BBX 16 23 2 0
BITMAP
FFFF
FFFF
FFFF
000E
001E
003C
0038
0078
00F0
00E0
01E0
03C0
0780
0780
0F00
1E00
1C00
3C00
7800
7000
FFFF
FFFF
FFFF
ENDCHAR
STARTCHAR bracketleft
ENCODING 91
SWIDTH 602 0
DWIDTH 19 0
BBX 7 29 7 -5
BITMAP
FE
FE
FE
E0
E0
E0
E0
E0
E0
E0
E0
E0
E0
E0
E0
E0
E0
E0
E0
E0
E0
E0
E0
E0
E0
E0
FE
FE
FE
ENDCHAR
STARTCHAR backslash
ENCODING 92
SWIDTH 602 0
DWIDTH 19 0
BBX 15 26 2 -3
BITMAP
E000
7000
7000
3800
3800
1C00
1C00
1C00
0E00
0E00
0700
0700
0380
0380
01C0
01C0
00E0
00E0
0070
0070
0070
0038
0038
001C
001C
000E
ENDCHAR
STARTCHAR bracketright
ENCODING 93
SWIDTH 602 0
DWIDTH 19 0
BBX 7 29 5 -5
BITMAP
FE
FE
FE
0E
0E
0E
0E
0E
0E
0E
0E
0E
0E
0E
0E
0E
0E
0E
0E
0E
0E
0E
0E
0E
0E
0E
FE
FE
FE
ENDCHAR
STARTCHAR asciicircum
ENCODING 94
SWIDTH 602 0
DWIDTH 19 0
BBX 17 9 1 14
BITMAP
01C000
03E000
07F000
0F7800
0E3800
1C1C00
380E00
700700
E00380
ENDCHAR
STARTCHAR underscore
ENCODING 95
SWIDTH 602 0
DWIDTH 19 0
BBX 16 3 0 -8
BITMAP
FFFF
FFFF
FFFF
ENDCHAR
STARTCHAR grave
ENCODING 96
SWIDTH 602 0
DWIDTH 19 0
BBX 7 6 4 20
BITMAP
E0
70
38
18
0C
0E
ENDCHAR
STARTCHAR a
ENCODING 97
SWIDTH 602 0
DWIDTH 19 0
BBX 15 18 2 0
BITMAP
0FE0
3FF8
7FFC
703C
401E
000E
000E
0FFE
3FFE
7FFE
F80E
E00E
E00E
E01E
F07E
7FEE
3FEE
1F8E
ENDCHAR
STARTCHAR b
ENCODING 98
SWIDTH 602 0
DWIDTH 19 0
BBX 15 24 3 0
BITMAP
E000
E000
E000
E000
E000
E000
E3E0
EFF0
FFF8
F83C
F01C
F01E
E00E
E00E
E00E
E00E
E00E
E00E
F01E
F01C
F83C
FFF8
EFF0
E3E0
ENDCHAR
STARTCHAR c
ENCODING 99
SWIDTH 602 0
DWIDTH 19 0
BBX 14 18 3 0
BITMAP
03F0
1FF8
3FFC
7C0C
7804
F000
E000
E000
E000
E000
E000
E000
F000
7804
7C0C
3FFC
1FF8
03F0
ENDCHAR
STARTCHAR d
ENCODING 100
SWIDTH 602 0
DWIDTH 19 0
BBX 15 24 2 0
BITMAP
000E
000E
000E
000E
000E
000E
0F8E
1FEE
3FFE
783E
701E
F01E
E00E
E00E
E00E
E00E
E00E
E00E
F01E
701E
783E
3FFE
1FEE
0F8E
ENDCHAR
STARTCHAR e
ENCODING 101
SWIDTH 602 0
DWIDTH 19 0
BBX 15 18 2 0
BITMAP
07E0
1FF0
3FF8
783C
701C
E00E
E00E
FFFE
FFFE
FFFE
E000
E000
E000
7004
7C1C
3FFC
1FF8
07E0
ENDCHAR
STARTCHAR f
ENCODING 102
SWIDTH 602 0
DWIDTH 19 0
BBX 14 24 3 0
BITMAP
00FC
03FC
07FC
0780
0700
0700
FFFC
FFFC
FFFC
0700
0700
0700
0700
0700
0700
0700
0700
0700
0700
0700
0700
0700
0700
0700
ENDCHAR
STARTCHAR g
ENCODING 103
SWIDTH 602 0
DWIDTH 19 0
BBX 15 25 2 -7
BITMAP
0F8E
1FEE
3FFE
783E
701E
F01E
E00E
E00E
E00E
E00E
E00E
E00E
F01E
701E
783E
3FFE
1FEE
0F8E
000E
000E
001C
303C
3FF8
3FF0
0FC0
ENDCHAR
STARTCHAR h
ENCODING 104
SWIDTH 602 0
DWIDTH 19 0
BBX 13 24 3 0
BITMAP
E000
E000
E000
E000
E000
E000
E3C0
EFE0
EFF0
F870
F078
E038
E038
E038
E038
E038
E038
E038
E038
E038
E038
E038
E038
E038
ENDCHAR
STARTCHAR i
ENCODING 105
SWIDTH 602 0
DWIDTH 19 0
BBX 15 24 2 0
BITMAP
0380
0380
0380
0380
0000
0000
3F80
3F80
3F80
0380
0380
0380
0380
0380
0380
0380
0380
0380
0380
0380
0380
FFFE
FFFE
FFFE
ENDCHAR
STARTCHAR j
ENCODING 106
SWIDTH 602 0
DWIDTH 19 0
BBX 9 31 3 -7
BITMAP
0380
0380
0380
0380
0000
0000
7F80
7F80
7F80
0380
0380
0380
0380
0380
0380
0380
0380
0380
0380
0380
0380
0380
0380
0380
0380
0380
0380
0780
FF00
FE00
FC00
ENDCHAR
STARTCHAR k
ENCODING 107
SWIDTH 602 0
DWIDTH 19 0
BBX 15 24 4 0
BITMAP
E000
E000
E000
E000
E000
E000
E03C
E078
E0F0
E1E0
E3C0
E780
EF00
FF00
FF00
FF80
F3C0
E1C0
E1E0
E0F0
E078
E038
E03C
E01E
ENDCHAR
STARTCHAR l
ENCODING 108
SWIDTH 602 0
DWIDTH 19 0
BBX 15 24 1 0
BITMAP
FF80
FF80
FF80
0380
0380
0380
0380
0380
0380
0380
0380
0380
0380
0380
0380
0380
0380
0380
0380
0380
03C0
01FE
00FE
007E
ENDCHAR
STARTCHAR m
ENCODING 109
SWIDTH 602 0
DWIDTH 19 0
BBX 17 18 2 0
BITMAP
EF1E00
FFBF00
FFBF00
F3E780
E1C380
E1C380
E1C380
E1C380
E1C380
E1C380
E1C380
E1C380
E1C380
E1C380
E1C380
E1C380
E1C380
E1C380
ENDCHAR
STARTCHAR n
ENCODING 110
SWIDTH 602 0
DWIDTH 19 0
BBX 13 18 3 0
BITMAP
E3C0
EFE0
EFF0
F870
F078
E038
E038
E038
E038
E038
E038
E038
E038
E038
E038
E038
E038
E038
ENDCHAR
STARTCHAR o
ENCODING 111
SWIDTH 602 0
DWIDTH 19 0
BBX 15 18 2 0
BITMAP
0FE0
1FF0
3FF8
783C
701C
F01E
E00E
E00E
E00E
E00E
E00E
E00E
F01E
701C
783C
3FF8
1FF0
0FC0
ENDCHAR
STARTCHAR p
ENCODING 112
SWIDTH 602 0
DWIDTH 19 0
BBX 15 25 3 -7
BITMAP
E3E0
EFF0
FFF8
F83C
F01C
F01E
E00E
E00E
E00E
E00E
E00E
E00E
F01E
F01C
F83C
FFF8
EFF0
E7E0
E000
E000
E000
E000
E000
E000
E000
ENDCHAR
STARTCHAR q
ENCODING 113
SWIDTH 602 0
DWIDTH 19 0
BBX 15 25 2 -7
BITMAP
0F8E
1FEE
3FFE
783E
701E
F01E
E00E
E00E
E00E
E00E
E00E
E00E
F01E
701E
783E
3FFE
1FEE
0F8E
000E
000E
000E
000E
000E
000E
000E
ENDCHAR
STARTCHAR r
ENCODING 114
SWIDTH 602 0
DWIDTH 19 0
BBX 12 18 6 0
BITMAP
E3E0
EFF0
EFF0
FC10
F000
F000
E000
E000
E000
E000
E000
E000
E000
E000
E000
E000
E000
E000
ENDCHAR
STARTCHAR s
ENCODING 115
SWIDTH 602 0
DWIDTH 19 0
BBX 13 18 3 0
BITMAP
1FE0
7FF0
7FF0
F030
E000
E000
FC00
7FC0
3FF0
03F0
0078
0038
0038
8038
E0F8
FFF0
7FE0
1F80
ENDCHAR
STARTCHAR t
ENCODING 116
SWIDTH 602 0
DWIDTH 19 0
BBX 15 23 2 0
BITMAP
0700
0700
0700
0700
0700
FFFE
FFFE
FFFE
0700
0700
0700
0700
0700
0700
0700
0700
0700
0700
0700
0780
03FE
03FE
00FE
ENDCHAR
STARTCHAR u
ENCODING 117
SWIDTH 602 0
DWIDTH 19 0
BBX 13 18 3 0
BITMAP
E038
E038
E038
E038
E038
E038
E038
E038
E038
E038
E038
E038
E038
F078
F0F8
7FB8
3FB8
1E38
ENDCHAR
STARTCHAR v
ENCODING 118
SWIDTH 602 0
DWIDTH 19 0
BBX 16 18 2 0
BITMAP
E007
700F
700E
700E
381C
381C
381C
1C38
1C38
1C38
0E70
0E70
0E70
07E0
07E0
07E0
03C0
03C0
ENDCHAR
STARTCHAR w
ENCODING 119
SWIDTH 602 0
DWIDTH 19 0
BBX 19 18 0 0
BITMAP
E000E0
E000E0
7001C0
7001C0
7001C0
70E1C0
78E3C0
38E380
39B380
39B380
39B380
1DB700
1F1F00
1F1F00
1F1F00
1E0F00
0E0E00
0E0E00
ENDCHAR
STARTCHAR x
ENCODING 120
SWIDTH 602 0
DWIDTH 19 0
BBX 17 18 1 0
BITMAP
780F00
3C1E00
1C1C00
1E3C00
0F7800
077000
03E000
03E000
01C000
03E000
03E000
07F000
0F7800
1E3C00
1C1C00
3C1E00
780F00
F00780
ENDCHAR
STARTCHAR y
ENCODING 121
SWIDTH 602 0
DWIDTH 19 0
BBX 16 25 2 -7
BITMAP
E007
700E
700E
781E
381C
381C
3C3C
1C38
1C38
0E70
0E70
0EF0
07E0
07E0
07E0
03C0
03C0
0380
0380
0380
0700
0F00
7F00
7E00
7800
ENDCHAR
STARTCHAR z
ENCODING 122
SWIDTH 602 0
DWIDTH 19 0
BBX 13 18 3 0
BITMAP
FFF8
FFF8
FFF8
00F0
00F0
01E0
03C0
0380
0780
0F00
1E00
1E00
3C00
7800
7000
FFF8
FFF8
FFF8
ENDCHAR
STARTCHAR braceleft
ENCODING 123
SWIDTH 602 0
DWIDTH 19 0
BBX 13 30 3 -6
BITMAP
00F8
03F8
03F8
0780
0700
0700
0700
0700
0700
0700
0700
0700
0F00
FE00
F800
FE00
0E00
0700
0700
0700
0700
0700
0700
0700
0700
0700
0780
03F8
03F8
00F8
ENDCHAR
STARTCHAR bar
ENCODING 124
SWIDTH 602 0
DWIDTH 19 0
BBX 3 32 8 -8
BITMAP
E0
E0
E0
E0
E0
E0
E0
E0
E0
E0
E0
E0
E0
E0
E0
E0
E0
E0
E0
E0
E0
E0
E0
E0
E0
E0
E0
E0
E0
E0
E0
E0
ENDCHAR
STARTCHAR braceright
ENCODING 125
SWIDTH 602 0
DWIDTH 19 0
BBX 13 30 3 -6
BITMAP
F800
FE00
FE00
0F00
0700
0700
0700
0700
0700
0700
0700
0700
0780
03F8
00F8
03F8
0380
0700
0700
0700
0700
0700
0700
0700
0700
0700
0F00
FE00
FE00
F800
ENDCHAR
STARTCHAR asciitilde
ENCODING 126
SWIDTH 602 0
DWIDTH 19 0
BBX 17 5 1 8
BITMAP
3F0080
FFC180
FFFF80
C1FF80
803E00
ENDCHAR
STARTCHAR nonbreakingspace
ENCODING 160
SWIDTH 602 0
DWIDTH 19 0
BBX 1 1 0 0
BITMAP
00
ENDCHAR
STARTCHAR exclamdown
ENCODING 161
SWIDTH 602 0
DWIDTH 19 0
BBX 3 23 8 0
BITMAP
E0
E0
E0
E0
00
00
00
00
E0
E0
E0
E0
E0
E0
E0
E0
E0
E0
E0
E0
E0
E0
E0
ENDCHAR
STARTCHAR cent
ENCODING 162
SWIDTH 602 0
DWIDTH 19 0
BBX 13 27 3 -5
BITMAP
0180
0180
0180
0180
07F0
1FF8
3FF8
7988
7180
F180
E180
E180
E180
E180
E180
E180
F180
7180
7D88
3FF8
1FF8
07F0
0180
0180
0180
0180
0180
ENDCHAR
STARTCHAR sterling
ENCODING 163
SWIDTH 602 0
DWIDTH 19 0
BBX 15 23 2 0
BITMAP
00FC
03FE
07FE
0782
0F00
0E00
0E00
0E00
0E00
0E00
7FF8
7FF8
7FF8
0E00
0E00
0E00
0E00
0E00
0E00
0E00
FFFE
FFFE
FFFE
ENDCHAR
STARTCHAR currency
ENCODING 164
SWIDTH 602 0
DWIDTH 19 0
BBX 15 15 3 2
BITMAP
4004
E00E
77DC
3FF8
1C70
3838
3018
3018
3018
3838
1C70
3FF8
77DC
E00E
4004
ENDCHAR
STARTCHAR yen
ENCODING 165
SWIDTH 602 0
DWIDTH 19 0
BBX 17 23 1 0
BITMAP
F00780
700700
780F00
380E00
1C1C00
1E3C00
0E3800
0F7800
7F7F00
7FFF00
03E000
03E000
01C000
7FFF00
7FFF00
01C000
01C000
01C000
01C000
01C000
01C000
01C000
01C000
ENDCHAR
STARTCHAR brokenbar
ENCODING 166
SWIDTH 602 0
DWIDTH 19 0
BBX 3 28 8 -5
BITMAP
E0
E0
E0
E0
E0
E0
E0
E0
E0
E0
E0
E0
00
00
00
00
E0
E0
E0
E0
E0
E0
E0
E0
E0
E0
E0
E0
ENDCHAR
STARTCHAR section
ENCODING 167
SWIDTH 602 0
DWIDTH 19 0
BBX 13 26 3 -3
BITMAP
0FC0
3FE0
7860
7020
7000
7000
3800
3C00
1F00
77C0
E1E0
E0F0
E078
F038
7838
3E70
0F70
07C0
01E0
00F0
0070
0070
4070
70E0
7FE0
1F80
ENDCHAR
STARTCHAR dieresis
ENCODING 168
SWIDTH 602 0
DWIDTH 19 0
BBX 9 3 5 21
BITMAP
E380
E380
E380
ENDCHAR
STARTCHAR copyright
ENCODING 169
SWIDTH 602 0
DWIDTH 19 0
BBX 19 19 0 2
BITMAP
03F800
0FFE00
1E0F00
380380
71F1C0
67F8C0
E708E0
CE0060
CC0060
CC0060
CC0060
CE0060
E708E0
67F8C0
71F1C0
380380
1E0F00
0FFE00
03F800
ENDCHAR
STARTCHAR ordfeminine
ENCODING 170
SWIDTH 602 0
DWIDTH 19 0
BBX 12 17 4 6
BITMAP
3F80
7FE0
60E0
0030
0030
1FF0
7FF0
E030
C030
C070
E0F0
7FB0
3F30
0000
0000
FFF0
FFF0
ENDCHAR
STARTCHAR guillemotleft
ENCODING 171
SWIDTH 602 0
DWIDTH 19 0
BBX 14 14 2 3
BITMAP
0204
060C
0E1C
1C38
3870
70E0
E1C0
E1C0
70E0
3870
1C38
0E1C
060C
0204
ENDCHAR
STARTCHAR logicalnot
ENCODING 172
SWIDTH 602 0
DWIDTH 19 0
BBX 17 8 1 5
BITMAP
FFFF80
FFFF80
FFFF80
000380
000380
000380
000380
000380
ENDCHAR
STARTCHAR sfthyphen
ENCODING 173
SWIDTH 602 0
DWIDTH 19 0
BBX 8 3 6 7
BITMAP
FF
FF
FF
ENDCHAR
STARTCHAR registered
ENCODING 174
SWIDTH 602 0
DWIDTH 19 0
BBX 19 19 0 2
BITMAP
03F800
0FFE00
1E0F00
380380
73F1C0
63F8C0
E318E0
C31860
C3F060
C3E060
C36060
C33060
E338E0
6318C0
731DC0
380380
1E0F00
0FFE00
03F800
ENDCHAR
STARTCHAR macron
ENCODING 175
SWIDTH 602 0
DWIDTH 19 0
BBX 9 3 5 21
BITMAP
FF80
FF80
FF80
ENDCHAR
STARTCHAR degree
ENCODING 176
SWIDTH 602 0
DWIDTH 19 0
BBX 10 10 5 13
BITMAP
1E00
7F80
6180
C0C0
C0C0
C0C0
C0C0
6180
7F80
1E00
ENDCHAR
STARTCHAR plusminus
ENCODING 177
SWIDTH 602 0
DWIDTH 19 0
BBX 17 18 1 0
BITMAP
01C000
01C000
01C000
01C000
01C000
FFFF80
FFFF80
FFFF80
01C000
01C000
01C000
01C000
01C000
000000
000000
FFFF80
FFFF80
FFFF80
ENDCHAR
STARTCHAR twosuperior
ENCODING 178
SWIDTH 602 0
DWIDTH 19 0
BBX 9 13 5 10
BITMAP
7E00
FF00
8380
0180
0180
0380
0700
0E00
1C00
3800
7000
FF80
FF80
ENDCHAR
STARTCHAR threesuperior
ENCODING 179
SWIDTH 602 0
DWIDTH 19 0
BBX 9 13 5 10
BITMAP
7E00
FF00
8380
0180
0380
1F00
1F00
0380
0180
0180
8380
FF00
7E00
ENDCHAR
STARTCHAR acute
ENCODING 180
SWIDTH 602 0
DWIDTH 19 0
BBX 7 6 7 20
BITMAP
0E
1C
38
30
60
E0
ENDCHAR
STARTCHAR mu
ENCODING 181
SWIDTH 602 0
DWIDTH 19 0
BBX 15 25 3 -7
BITMAP
E038
E038
E038
E038
E038
E038
E038
E038
E038
E038
E038
E038
E038
F078
F8F8
FFDE
FFDE
E71E
E000
E000
E000
E000
E000
E000
E000
ENDCHAR
STARTCHAR paragraph
ENCODING 182
SWIDTH 602 0
DWIDTH 19 0
BBX 14 26 2 -3
BITMAP
0FFC
3FFC
7F8C
7F8C
FF8C
FF8C
FF8C
FF8C
FF8C
7F8C
7F8C
3F8C
0F8C
018C
018C
018C
018C
018C
018C
018C
018C
018C
018C
018C
018C
018C
ENDCHAR
STARTCHAR periodcentered
ENCODING 183
SWIDTH 602 0
DWIDTH 19 0
BBX 4 5 8 9
BITMAP
F0
F0
F0
F0
F0
ENDCHAR
STARTCHAR cedilla
ENCODING 184
SWIDTH 602 0
DWIDTH 19 0
BBX 6 6 7 -6
BITMAP
18
18
0C
8C
FC
F8
ENDCHAR
STARTCHAR onesuperior
ENCODING 185
SWIDTH 602 0
DWIDTH 19 0
BBX 8 13 6 10
BITMAP
38
F8
D8
18
18
18
18
18
18
18
18
FF
FF
ENDCHAR
STARTCHAR ordmasculine
ENCODING 186
SWIDTH 602 0
DWIDTH 19 0
BBX 12 17 4 6
BITMAP
1F80
3FC0
70E0
6060
C030
C030
C030
C030
C030
6060
70E0
3FC0
1F80
0000
0000
FFF0
FFF0
ENDCHAR
STARTCHAR guillemotright
ENCODING 187
SWIDTH 602 0
DWIDTH 19 0
BBX 14 14 3 3
BITMAP
8100
C180
E1C0
70E0
3870
1C38
0E1C
0E1C
1C38
3870
70E0
E1C0
C180
8100
ENDCHAR
STARTCHAR onequarter
ENCODING 188
SWIDTH 602 0
DWIDTH 19 0
BBX 17 30 0 -5
BITMAP
0E0000
3E0000
360000
060000
060000
060000
060000
060000
060000
060000
060000
3FC380
3FFF80
03FE00
3FE000
FE0000
C00000
000E00
001E00
001E00
003600
006600
006600
00C600
018600
01FF80
01FF80
000600
000600
000600
ENDCHAR
STARTCHAR onehalf
ENCODING 189
SWIDTH 602 0
DWIDTH 19 0
BBX 17 30 0 -5
BITMAP
0E0000
3E0000
360000
060000
060000
060000
060000
060000
060000
060000
060000
3FC380
3FFF80
03FE00
3FE000
FE0000
C00000
007E00
00FF00
008380
000180
000180
000380
000700
000E00
001C00
003800
007000
00FF80
00FF80
ENDCHAR
STARTCHAR threequarters
ENCODING 190
SWIDTH 602 0
DWIDTH 19 0
BBX 17 30 0 -5
BITMAP
3F0000
7F8000
41C000
00C000
01C000
0F8000
0F8000
01C000
00C000
00C000
41C000
7F8380
3F3F80
03FE00
3FE000
FE0000
C00000
000E00
001E00
001E00
003600
006600
006600
00C600
018600
01FF80
01FF80
000600
000600
000600
ENDCHAR
STARTCHAR questiondown
ENCODING 191
SWIDTH 602 0
DWIDTH 19 0
BBX 12 23 3 0
BITMAP
0700
0700
0700
0700
0000
0000
0700
0700
0700
0700
0F00
0E00
1E00
3C00
7800
F000
E000
E000
E010
F070
7FF0
3FE0
1F80
ENDCHAR
STARTCHAR Agrave
ENCODING 192
SWIDTH 602 0
DWIDTH 19 0
BBX 18 30 1 0
BITMAP
070000
038000
01C000
00E000
000000
000000
000000
01E000
01E000
03F000
03F000
03F000
07F800
073800
073800
0F3C00
0E1C00
0E1C00
0E1C00
1C0E00
1C0E00
1FFE00
3FFF00
3FFF00
380700
780780
700380
700380
F003C0
E001C0
ENDCHAR
STARTCHAR Aacute
ENCODING 193
SWIDTH 602 0
DWIDTH 19 0
BBX 18 30 1 0
BITMAP
007000
00E000
01C000
038000
000000
000000
000000
01E000
01E000
03F000
03F000
03F000
07F800
073800
073800
0F3C00
0E1C00
0E1C00
0E1C00
1C0E00
1C0E00
1FFE00
3FFF00
3FFF00
380700
780780
700380
700380
F003C0
E001C0
ENDCHAR
STARTCHAR Acircumflex
ENCODING 194
SWIDTH 602 0
DWIDTH 19 0
BBX 18 30 1 0
BITMAP
01E000
03F000
073800
0E1C00
000000
000000
000000
01E000
01E000
03F000
03F000
03F000
07F800
073800
073800
0F3C00
0E1C00
0E1C00
0E1C00
1C0E00
1C0E00
1FFE00
3FFF00
3FFF00
380700
780780
700380
700380
F003C0
E001C0
ENDCHAR
STARTCHAR Atilde
ENCODING 195
SWIDTH 602 0
DWIDTH 19 0
BBX 18 30 1 0
BITMAP
0F1800
0F9800
19F000
18F000
000000
000000
000000
01E000
01E000
03F000
03F000
03F000
07F800
073800
073800
0F3C00
0E1C00
0E1C00
0E1C00
1C0E00
1C0E00
1FFE00
3FFF00
3FFF00
380700
780780
700380
700380
F003C0
E001C0
ENDCHAR
STARTCHAR Adieresis
ENCODING 196
SWIDTH 602 0
DWIDTH 19 0
BBX 18 29 1 0
BITMAP
0E3800
0E3800
0E3800
000000
000000
000000
01E000
01E000
03F000
03F000
03F000
07F800
073800
073800
0F3C00
0E1C00
0E1C00
0E1C00
1C0E00
1C0E00
1FFE00
3FFF00
3FFF00
380700
780780
700380
700380
F003C0
E001C0
ENDCHAR
STARTCHAR Aring
ENCODING 197
SWIDTH 602 0
DWIDTH 19 0
BBX 18 30 1 0
BITMAP
01E000
07F800
0E1800
0C0C00
0C0C00
0C0C00
0E1C00
07F800
03F000
03F000
073800
073800
073800
073800
0E1C00
0E1C00
0E1C00
1E1E00
1C0E00
1C0E00
1C0E00
3FFF00
3FFF00
3FFF00
780700
700380
700380
700380
F003C0
E001C0
ENDCHAR
STARTCHAR AE
ENCODING 198
SWIDTH 602 0
DWIDTH 19 0
BBX 18 23 0 0
BITMAP
03FFC0
03FFC0
03FFC0
07B800
073800
073800
073800
0E3800
0E3800
0E3F80
1E3F80
1C3F80
1C3800
1C3800
3FF800
3FF800
3FF800
383800
703800
703800
703FC0
F03FC0
E03FC0
ENDCHAR
STARTCHAR Ccedilla
ENCODING 199
SWIDTH 602 0
DWIDTH 19 0
BBX 15 29 2 -6
BITMAP
03F0
0FFC
1FFE
3E0E
3802
7000
7000
E000
E000
E000
E000
E000
E000
E000
E000
E000
7000
7000
3802
3E0E
1FFE
0FFC
03F0
0030
0030
0018
0118
01F8
01F0
ENDCHAR
STARTCHAR Egrave
ENCODING 200
SWIDTH 602 0
DWIDTH 19 0
BBX 14 30 3 0
BITMAP
1C00
0E00
0700
0380
0000
0000
0000
FFFC
FFFC
FFFC
E000
E000
E000
E000
E000
E000
FFF8
FFF8
FFF8
E000
E000
E000
E000
E000
E000
E000
E000
FFFC
FFFC
FFFC
ENDCHAR
STARTCHAR Eacute
ENCODING 201
SWIDTH 602 0
DWIDTH 19 0
BBX 14 30 3 0
BITMAP
01C0
0380
0700
0E00
0000
0000
0000
FFFC
FFFC
FFFC
E000
E000
E000
E000
E000
E000
FFF8
FFF8
FFF8
E000
E000
E000
E000
E000
E000
E000
E000
FFFC
FFFC
FFFC
ENDCHAR
STARTCHAR Ecircumflex
ENCODING 202
SWIDTH 602 0
DWIDTH 19 0
BBX 14 30 3 0
BITMAP
0780
0FC0
1CE0
3870
0000
0000
0000
FFFC
FFFC
FFFC
E000
E000
E000
E000
E000
E000
FFF8
FFF8
FFF8
E000
E000
E000
E000
E000
E000
E000
E000
FFFC
FFFC
FFFC
ENDCHAR
STARTCHAR Edieresis
ENCODING 203
SWIDTH 602 0
DWIDTH 19 0
BBX 14 29 3 0
BITMAP
38E0
38E0
38E0
0000
0000
0000
FFFC
FFFC
FFFC
E000
E000
E000
E000
E000
E000
FFF8
FFF8
FFF8
E000
E000
E000
E000
E000
E000
E000
E000
FFFC
FFFC
FFFC
ENDCHAR
STARTCHAR Igrave
ENCODING 204
SWIDTH 602 0
DWIDTH 19 0
BBX 13 30 3 0
BITMAP
1C00
0E00
0700
0380
0000
0000
0000
FFF8
FFF8
FFF8
0700
0700
0700
0700
0700
0700
0700
0700
0700
0700
0700
0700
0700
0700
0700
0700
0700
FFF8
FFF8
FFF8
ENDCHAR
STARTCHAR Iacute
ENCODING 205
SWIDTH 602 0
DWIDTH 19 0
BBX 13 30 3 0
BITMAP
01C0
0380
0700
0E00
0000
0000
0000
FFF8
FFF8
FFF8
0700
0700
0700
0700
0700
0700
0700
0700
0700
0700
0700
0700
0700
0700
0700
0700
0700
FFF8
FFF8
FFF8
ENDCHAR
STARTCHAR Icircumflex
ENCODING 206
SWIDTH 602 0
DWIDTH 19 0
BBX 13 30 3 0
BITMAP
0780
0FC0
1CE0
3870
0000
0000
0000
FFF8
FFF8
FFF8
0700
0700
0700
0700
0700
0700
0700
0700
0700
0700
0700
0700
0700
0700
0700
0700
0700
FFF8
FFF8
FFF8
ENDCHAR
STARTCHAR Idieresis
ENCODING 207
SWIDTH 602 0
DWIDTH 19 0
BBX 13 29 3 0
BITMAP
38E0
38E0
38E0
0000
0000
0000
FFF8
FFF8
FFF8
0700
0700
0700
0700
0700
0700
0700
0700
0700
0700
0700
0700
0700
0700
0700
0700
0700
FFF8
FFF8
FFF8
ENDCHAR
STARTCHAR Eth
ENCODING 208
SWIDTH 602 0
DWIDTH 19 0
BBX 17 23 0 0
BITMAP
3FE000
3FF800
3FFC00
383E00
380F00
380700
380700
380380
380380
380380
FF8380
FF8380
FF8380
380380
380380
380380
380700
380700
380F00
383E00
3FFC00
3FF800
3FC000
ENDCHAR
STARTCHAR Ntilde
ENCODING 209
SWIDTH 602 0
DWIDTH 19 0
BBX 15 30 2 0
BITMAP
1E30
1F30
33E0
31E0
0000
0000
0000
F00E
F80E
F80E
F80E
FC0E
EC0E
EE0E
EE0E
E70E
E70E
E30E
E38E
E18E
E1CE
E1CE
E0EE
E0EE
E06E
E07E
E03E
E03E
E03E
E01E
ENDCHAR
STARTCHAR Ograve
ENCODING 210
SWIDTH 602 0
DWIDTH 19 0
BBX 16 30 2 0
BITMAP
0E00
0700
0380
01C0
0000
0000
0000
07E0
1FF8
3FFC
3C3C
701E
700E
F00F
E007
E007
E007
E007
E007
E007
E007
E007
E007
F00F
700E
701E
3C3C
3FFC
1FF8
07E0
ENDCHAR
STARTCHAR Oacute
ENCODING 211
SWIDTH 602 0
DWIDTH 19 0
BBX 16 30 2 0
BITMAP
00E0
01C0
0380
0700
0000
0000
0000
07E0
1FF8
3FFC
3C3C
701E
700E
F00F
E007
E007
E007
E007
E007
E007
E007
E007
E007
F00F
700E
701E
3C3C
3FFC
1FF8
07E0
ENDCHAR
STARTCHAR Ocircumflex
ENCODING 212
SWIDTH 602 0
DWIDTH 19 0
BBX 16 30 2 0
BITMAP
03C0
07E0
0E70
1C38
0000
0000
0000
07E0
1FF8
3FFC
3C3C
701E
700E
F00F
E007
E007
E007
E007
E007
E007
E007
E007
E007
F00F
700E
701E
3C3C
3FFC
1FF8
07E0
ENDCHAR
STARTCHAR Otilde
ENCODING 213
SWIDTH 602 0
DWIDTH 19 0
BBX 16 30 2 0
BITMAP
1E30
1F30
33E0
31E0
0000
0000
0000
07E0
1FF8
3FFC
3C3C
701E
700E
F00F
E007
E007
E007
E007
E007
E007
E007
E007
E007
F00F
700E
701E
3C3C
3FFC
1FF8
07E0
ENDCHAR
STARTCHAR Odieresis
ENCODING 214
SWIDTH 602 0
DWIDTH 19 0
BBX 16 29 2 0
BITMAP
1C70
1C70
1C70
0000
0000
0000
07E0
1FF8
3FFC
3C3C
701E
700E
F00F
E007
E007
E007
E007
E007
E007
E007
E007
E007
F00F
700E
701E
3C3C
3FFC
1FF8
07E0
ENDCHAR
STARTCHAR multiply
ENCODING 215
SWIDTH 602 0
DWIDTH 19 0
BBX 15 15 2 2
BITMAP
4004
E00E
701C
3838
1C70
0EE0
07C0
0380
07C0
0EE0
1C70
3838
701C
E00E
4004
ENDCHAR
STARTCHAR Oslash
ENCODING 216
SWIDTH 602 0
DWIDTH 19 0
BBX 19 24 0 -1
BITMAP
01F860
07FE60
0FFEC0
0F0F80
1E0780
1C0380
3C0780
380FC0
381DC0
3839C0
3871C0
38E1C0
38C1C0
3981C0
3B81C0
3F01C0
3E03C0
1C0380
1C0780
3F0F00
3FFF00
67FE00
E1F800
400000
ENDCHAR
STARTCHAR Ugrave
ENCODING 217
SWIDTH 602 0
DWIDTH 19 0
BBX 15 30 2 0
BITMAP
0E00
0700
0380
01C0
0000
0000
0000
E00E
E00E
E00E
E00E
E00E
E00E
E00E
E00E
E00E
E00E
E00E
E00E
E00E
E00E
E00E
E00E
E00E
E00E
F01E
783C
7FFC
3FF8
0FE0
ENDCHAR
STARTCHAR Uacute
ENCODING 218
SWIDTH 602 0
DWIDTH 19 0
BBX 15 30 2 0
BITMAP
00E0
01C0
0380
0700
0000
0000
0000
E00E
E00E
E00E
E00E
E00E
E00E
E00E
E00E
E00E
E00E
E00E
E00E
E00E
E00E
E00E
E00E
E00E
E00E
F01E
783C
7FFC
3FF8
0FE0
ENDCHAR
STARTCHAR Ucircumflex
ENCODING 219
SWIDTH 602 0
DWIDTH 19 0
BBX 15 30 2 0
BITMAP
03C0
07E0
0E70
1C38
0000
0000
0000
E00E
E00E
E00E
E00E
E00E
E00E
E00E
E00E
E00E
E00E
E00E
E00E
E00E
E00E
E00E
E00E
E00E
E00E
F01E
783C
7FFC
3FF8
0FE0
ENDCHAR
STARTCHAR Udieresis
ENCODING 220
SWIDTH 602 0
DWIDTH 19 0
BBX 15 29 2 0
BITMAP
1C70
1C70
1C70
0000
0000
0000
E00E
E00E
E00E
E00E
E00E
E00E
E00E
E00E
E00E
E00E
E00E
E00E
E00E
E00E
E00E
E00E
E00E
E00E
F01E
783C
7FFC
3FF8
0FE0
ENDCHAR
STARTCHAR Yacute
ENCODING 221
SWIDTH 602 0
DWIDTH 19 0
BBX 17 30 1 0
BITMAP
007000
00E000
01C000
038000
000000
000000
000000
F00780
700700
780F00
380E00
3C1E00
1C1C00
0E3800
0F7800
077000
07F000
03E000
03E000
01C000
01C000
01C000
01C000
01C000
01C000
01C000
01C000
01C000
01C000
01C000
ENDCHAR
STARTCHAR Thorn
ENCODING 222
SWIDTH 602 0
DWIDTH 19 0
BBX 15 23 3 0
BITMAP
E000
E000
E000
E000
FFE0
FFF8
FFFC
E03C
E01E
E00E
E00E
E00E
E01E
E03C
FFFC
FFF8
FFE0
E000
E000
E000
E000
E000
E000
ENDCHAR
STARTCHAR germandbls
ENCODING 223
SWIDTH 602 0
DWIDTH 19 0
BBX 15 24 3 0
BITMAP
1F80
3FE0
7FF0
F070
E038
E038
E0F8
E1C0
E380
E700
E700
E700
E3C0
E3E0
E0F8
E03C
E01C
E00E
E00E
E00E
E81E
EFFC
EFF8
E7F0
ENDCHAR
STARTCHAR agrave
ENCODING 224
SWIDTH 602 0
DWIDTH 19 0
BBX 15 26 2 0
BITMAP
3800
1C00
0E00
0600
0300
0380
0000
0000
0FE0
3FF8
7FFC
703C
401E
000E
000E
0FFE
3FFE
7FFE
F80E
E00E
E00E
E01E
F07E
7FEE
3FEE
1F8E
ENDCHAR
STARTCHAR aacute
ENCODING 225
SWIDTH 602 0
DWIDTH 19 0
BBX 15 26 2 0
BITMAP
0070
00E0
01C0
0180
0300
0700
0000
0000
0FE0
3FF8
7FFC
703C
401E
000E
000E
0FFE
3FFE
7FFE
F80E
E00E
E00E
E01E
F07E
7FEE
3FEE
1F8E
ENDCHAR
STARTCHAR acircumflex
ENCODING 226
SWIDTH 602 0
DWIDTH 19 0
BBX 15 26 2 0
BITMAP
0180
03C0
07E0
0660
0C30
1C38
0000
0000
0FE0
3FF8
7FFC
703C
401E
000E
000E
0FFE
3FFE
7FFE
F80E
E00E
E00E
E01E
F07E
7FEE
3FEE
1F8E
ENDCHAR
STARTCHAR atilde
ENCODING 227
SWIDTH 602 0
DWIDTH 19 0
BBX 15 25 2 0
BITMAP
1E30
3F30
33E0
31E0
0000
0000
0000
0FE0
3FF8
7FFC
703C
401E
000E
000E
0FFE
3FFE
7FFE
F80E
E00E
E00E
E01E
F07E
7FEE
3FEE
1F8E
ENDCHAR
STARTCHAR adieresis
ENCODING 228
SWIDTH 602 0
DWIDTH 19 0
BBX 15 24 2 0
BITMAP
1C70
1C70
1C70
0000
0000
0000
0FE0
3FF8
7FFC
703C
401E
000E
000E
0FFE
3FFE
7FFE
F80E
E00E
E00E
E01E
F07E
7FEE
3FEE
1F8E
ENDCHAR
STARTCHAR aring
ENCODING 229
SWIDTH 602 0
DWIDTH 19 0
BBX 15 29 2 0
BITMAP
07C0
0FE0
1C70
1830
1830
1830
1C70
0FE0
07C0
0000
0000
0FE0
3FF8
7FFC
703C
401E
000E
000E
0FFE
3FFE
7FFE
F80E
E00E
E00E
E01E
F07E
7FEE
3FEE
1F8E
ENDCHAR
STARTCHAR ae
ENCODING 230
SWIDTH 602 0
DWIDTH 19 0
BBX 18 18 1 0
BITMAP
3F1F00
7FBF80
7FFF80
41F3C0
00E1C0
00E1C0
00E1C0
1FFFC0
3FFFC0
7FFFC0
F0E000
E0E000
E0E000
E0E000
F1F0C0
7FBFC0
7FBFC0
1E0F00
ENDCHAR
STARTCHAR ccedilla
ENCODING 231
SWIDTH 602 0
DWIDTH 19 0
BBX 14 24 3 -6
BITMAP
03F0
1FF8
3FFC
7C0C
7804
F000
E000
E000
E000
E000
E000
E000
F000
7804
7C0C
3FFC
1FF8
03F0
0060
0060
0030
0230
03F0
03E0
ENDCHAR
STARTCHAR egrave
ENCODING 232
SWIDTH 602 0
DWIDTH 19 0
BBX 15 26 2 0
BITMAP
3800
1C00
0E00
0600
0300
0380
0000
0000
07E0
1FF0
3FF8
783C
701C
E00E
E00E
FFFE
FFFE
FFFE
E000
E000
E000
7004
7C1C
3FFC
1FF8
07E0
ENDCHAR
STARTCHAR eacute
ENCODING 233
SWIDTH 602 0
DWIDTH 19 0
BBX 15 26 2 0
BITMAP
0070
00E0
01C0
0180
0300
0700
0000
0000
07E0
1FF0
3FF8
783C
701C
E00E
E00E
FFFE
FFFE
FFFE
E000
E000
E000
7004
7C1C
3FFC
1FF8
07E0
ENDCHAR
STARTCHAR ecircumflex
ENCODING 234
SWIDTH 602 0
DWIDTH 19 0
BBX 15 26 2 0
BITMAP
0180
03C0
07E0
0660
0C30
1C38
0000
0000
07E0
1FF0
3FF8
783C
701C
E00E
E00E
FFFE
FFFE
FFFE
E000
E000
E000
7004
7C1C
3FFC
1FF8
07E0
ENDCHAR
STARTCHAR edieresis
ENCODING 235
SWIDTH 602 0
DWIDTH 19 0
BBX 15 24 2 0
BITMAP
1C70
1C70
1C70
0000
0000
0000
07E0
1FF0
3FF8
783C
701C
E00E
E00E
FFFE
FFFE
FFFE
E000
E000
E000
7004
7C1C
3FFC
1FF8
07E0
ENDCHAR
STARTCHAR igrave
ENCODING 236
SWIDTH 602 0
DWIDTH 19 0
BBX 15 26 2 0
BITMAP
3800
1C00
0E00
0600
0300
0380
0000
0000
3F80
3F80
3F80
0380
0380
0380
0380
0380
0380
0380
0380
0380
0380
0380
0380
FFFE
FFFE
FFFE
ENDCHAR
STARTCHAR iacute
ENCODING 237
SWIDTH 602 0
DWIDTH 19 0
BBX 15 26 2 0
BITMAP
0070
00E0
01C0
0180
0300
0700
0000
0000
3F80
3F80
3F80
0380
0380
0380
0380
0380
0380
0380
0380
0380
0380
0380
0380
FFFE
FFFE
FFFE
ENDCHAR
STARTCHAR icircumflex
ENCODING 238
SWIDTH 602 0
DWIDTH 19 0
BBX 15 26 2 0
BITMAP
0180
03C0
07E0
0660
0C30
1C38
0000
0000
3F80
3F80
3F80
0380
0380
0380
0380
0380
0380
0380
0380
0380
0380
0380
0380
FFFE
FFFE
FFFE
ENDCHAR
STARTCHAR idieresis
ENCODING 239
SWIDTH 602 0
DWIDTH 19 0
BBX 15 24 2 0
BITMAP
1C70
1C70
1C70
0000
0000
0000
3F80
3F80
3F80
0380
0380
0380
0380
0380
0380
0380
0380
0380
0380
0380
0380
FFFE
FFFE
FFFE
ENDCHAR
STARTCHAR eth
ENCODING 240
SWIDTH 602 0
DWIDTH 19 0
BBX 15 24 2 0
BITMAP
3C00
1E38
0FF0
0F80
3FC0
21E0
00F0
0FF0
1FF8
3FFC
783C
701C
F01E
E00E
E00E
E00E
E00E
E00E
F01E
701C
783C
3FF8
1FF0
0FC0
ENDCHAR
STARTCHAR ntilde
ENCODING 241
SWIDTH 602 0
DWIDTH 19 0
BBX 13 25 3 0
BITMAP
3C60
7E60
67C0
63C0
0000
0000
0000
E3C0
EFE0
EFF0
F870
F078
E038
E038
E038
E038
E038
E038
E038
E038
E038
E038
E038
E038
E038
ENDCHAR
STARTCHAR ograve
ENCODING 242
SWIDTH 602 0
DWIDTH 19 0
BBX 15 26 2 0
BITMAP
3800
1C00
0E00
0600
0300
0380
0000
0000
0FE0
1FF0
3FF8
783C
701C
F01E
E00E
E00E
E00E
E00E
E00E
E00E
F01E
701C
783C
3FF8
1FF0
0FC0
ENDCHAR
STARTCHAR oacute
ENCODING 243
SWIDTH 602 0
DWIDTH 19 0
BBX 15 26 2 0
BITMAP
0070
00E0
01C0
0180
0300
0700
0000
0000
0FE0
1FF0
3FF8
783C
701C
F01E
E00E
E00E
E00E
E00E
E00E
E00E
F01E
701C
783C
3FF8
1FF0
0FC0
ENDCHAR
STARTCHAR ocircumflex
ENCODING 244
SWIDTH 602 0
DWIDTH 19 0
BBX 15 26 2 0
BITMAP
0180
03C0
07E0
0660
0C30
1C38
0000
0000
0FE0
1FF0
3FF8
783C
701C
F01E
E00E
E00E
E00E
E00E
E00E
E00E
F01E
701C
783C
3FF8
1FF0
0FC0
ENDCHAR
STARTCHAR otilde
ENCODING 245
SWIDTH 602 0
DWIDTH 19 0
BBX 15 25 2 0
BITMAP
1E30
3F30
33E0
31E0
0000
0000
0000
0FE0
1FF0
3FF8
783C
701C
F01E
E00E
E00E
E00E
E00E
E00E
E00E
F01E
701C
783C
3FF8
1FF0
0FC0
ENDCHAR
STARTCHAR odieresis
ENCODING 246
SWIDTH 602 0
DWIDTH 19 0
BBX 15 24 2 0
BITMAP
1C70
1C70
1C70
0000
0000
0000
0FE0
1FF0
3FF8
783C
701C
F01E
E00E
E00E
E00E
E00E
E00E
E00E
F01E
701C
783C
3FF8
1FF0
0FC0
ENDCHAR
STARTCHAR divide
ENCODING 247
SWIDTH 602 0
DWIDTH 19 0
BBX 16 17 2 2
BITMAP
03C0
03C0
03C0
03C0
0000
0000
0000
FFFF
FFFF
FFFF
0000
0000
0000
03C0
03C0
03C0
03C0
ENDCHAR
STARTCHAR oslash
ENCODING 248
SWIDTH 602 0
DWIDTH 19 0
BBX 17 20 1 -1
BITMAP
000100
07E180
0FFB00
1FFF00
3C1E00
381E00
781E00
703700
706700
70C700
718700
730700
760700
7C0F00
3C0E00
3C1E00
7FFC00
6FF800
C3F000
800000
ENDCHAR
STARTCHAR ugrave
ENCODING 249
SWIDTH 602 0
DWIDTH 19 0
BBX 13 26 3 0
BITMAP
7000
3800
1C00
0C00
0600
0700
0000
0000
E038
E038
E038
E038
E038
E038
E038
E038
E038
E038
E038
E038
E038
F078
F0F8
7FB8
3FB8
1E38
ENDCHAR
STARTCHAR uacute
ENCODING 250
SWIDTH 602 0
DWIDTH 19 0
BBX 13 26 3 0
BITMAP
00E0
01C0
0380
0300
0600
0E00
0000
0000
E038
E038
E038
E038
E038
E038
E038
E038
E038
E038
E038
E038
E038
F078
F0F8
7FB8
3FB8
1E38
ENDCHAR
STARTCHAR ucircumflex
ENCODING 251
SWIDTH 602 0
DWIDTH 19 0
BBX 13 26 3 0
BITMAP
0300
0780
0FC0
0CC0
1860
3870
0000
0000
E038
E038
E038
E038
E038
E038
E038
E038
E038
E038
E038
E038
E038
F078
F0F8
7FB8
3FB8
1E38
ENDCHAR
STARTCHAR udieresis
ENCODING 252
SWIDTH 602 0
DWIDTH 19 0
BBX 13 24 3 0
BITMAP
38E0
38E0
38E0
0000
0000
0000
E038
E038
E038
E038
E038
E038
E038
E038
E038
E038
E038
E038
E038
F078
F0F8
7FB8
3FB8
1E38
ENDCHAR
STARTCHAR yacute
ENCODING 253
SWIDTH 602 0
DWIDTH 19 0
BBX 16 33 2 -7
BITMAP
0070
00E0
01C0
0180
0300
0700
0000
0000
E007
700E
700E
781E
381C
381C
3C3C
1C38
1C38
0E70
0E70
0EF0
07E0
07E0
07E0
03C0
03C0
0380
0380
0380
0700
0F00
7F00
7E00
7800
ENDCHAR
STARTCHAR thorn
ENCODING 254
SWIDTH 602 0
DWIDTH 19 0
BBX 15 31 3 -7
BITMAP
E000
E000
E000
E000
E000
E000
E3E0
EFF0
FFF8
F83C
F01C
F01E
E00E
E00E
E00E
E00E
E00E
E00E
F01E
F01C
F83C
FFF8
EFF0
E7E0
E000
E000
E000
E000
E000
E000
E000
ENDCHAR
STARTCHAR ydieresis
ENCODING 255
SWIDTH 602 0
DWIDTH 19 0
BBX 16 31 2 -7
BITMAP
1C70
1C70
1C70
0000
0000
0000
E007
700E
700E
781E
381C
381C
3C3C
1C38
1C38
0E70
0E70
0EF0
07E0
07E0
07E0
03C0
03C0
0380
0380
0380
0700
0F00
7F00
7E00
7800
ENDCHAR
STARTCHAR .notdef
ENCODING -1
SWIDTH 602 0
DWIDTH 19 0
BBX 16 28 2 -5
BITMAP
FFFF
FFFF
C003
C003
C003
C003
C003
C003
C003
C003
C003
C003
C003
C003
C003
C003
C003
C003
C003
C003
C003
C003
C003
C003
C003
C003
FFFF
FFFF
ENDCHAR
STARTCHAR .null
ENCODING -1
SWIDTH 0 0
DWIDTH 0 0
BBX 1 1 0 0
BITMAP
00
ENDCHAR
STARTCHAR nonmarkingreturn
ENCODING -1
SWIDTH 602 0
DWIDTH 19 0
BBX 1 1 0 0
BITMAP
00
ENDCHAR
STARTCHAR dagger
ENCODING -1
SWIDTH 602 0
DWIDTH 19 0
BBX 15 26 2 -3
BITMAP
0380
0380
0380
0380
0380
0380
0380
FFFE
FFFE
FFFE
0380
0380
0380
0380
0380
0380
0380
0380
0380
0380
0380
0380
0380
0380
0380
0380
ENDCHAR
STARTCHAR bullet
ENCODING -1
SWIDTH 602 0
DWIDTH 19 0
BBX 9 9 5 8
BITMAP
3E00
7F00
FF80
FF80
FF80
FF80
FF80
7F00
3E00
ENDCHAR
STARTCHAR trademark
ENCODING -1
SWIDTH 602 0
DWIDTH 19 0
BBX 18 9 0 14
BITMAP
FF71C0
FF71C0
187BC0
186AC0
186EC0
1864C0
1860C0
1860C0
1860C0
ENDCHAR
STARTCHAR notequal
ENCODING -1
SWIDTH 602 0
DWIDTH 19 0
BBX 17 20 1 0
BITMAP
000200
000700
000F00
000E00
001C00
FFFF80
FFFF80
FFFF80
00E000
01E000
03C000
038000
FFFF80
FFFF80
FFFF80
1C0000
380000
780000
700000
200000
ENDCHAR
STARTCHAR infinity
ENCODING -1
SWIDTH 602 0
DWIDTH 19 0
BBX 18 12 1 4
BITMAP
1E0E00
7F3F00
633180
C1E0C0
C1E0C0
C0C0C0
C0C0C0
C1E0C0
C1E1C0
633180
7F3F80
1C0E00
ENDCHAR
STARTCHAR lessequal
ENCODING -1
SWIDTH 602 0
DWIDTH 19 0
BBX 17 17 1 0
BITMAP
000180
000F80
007F80
07FE00
3FE000
FF0000
F00000
FF0000
3FE000
07FE00
007F80
000F80
000180
000000
FFFF80
FFFF80
FFFF80
ENDCHAR
STARTCHAR greaterequal
ENCODING -1
SWIDTH 602 0
DWIDTH 19 0
BBX 17 17 1 0
BITMAP
C00000
F80000
FF0000
3FF000
03FE00
007F80
000780
007F80
03FE00
3FE000
FF0000
F80000
C00000
000000
FFFF80
FFFF80
FFFF80
ENDCHAR
STARTCHAR partialdiff
ENCODING -1
SWIDTH 602 0
DWIDTH 19 0
BBX 13 21 3 0
BITMAP
0780
0FE0
1E60
0830
0030
0038
0038
0038
1F38
38B8
7078
7078
E078
E070
E070
E070
E060
E0E0
60C0
3180
1F00
ENDCHAR
STARTCHAR summation
ENCODING -1
SWIDTH 602 0
DWIDTH 19 0
BBX 15 31 2 -7
BITMAP
FFFE
FFFE
6000
7000
3800
1800
1C00
0E00
0600
0700
0380
0180
01C0
00C0
0060
00E0
00C0
01C0
0180
0380
0700
0600
0E00
0C00
1C00
3800
3000
7000
6000
FFFE
FFFE
ENDCHAR
STARTCHAR product
ENCODING -1
SWIDTH 602 0
DWIDTH 19 0
BBX 15 31 2 -7
BITMAP
FFFE
FFFE
C006
C006
C006
C006
C006
C006
C006
C006
C006
C006
C006
C006
C006
C006
C006
C006
C006
C006
C006
C006
C006
C006
C006
C006
C006
C006
C006
C006
C006
ENDCHAR
STARTCHAR pi
ENCODING -1
SWIDTH 602 0
DWIDTH 19 0
BBX 17 17 1 0
BITMAP
FFFF00
FFFF00
381C00
381C00
381C00
381C00
381C00
381C00
381C00
381C00
381C00
381C00
381C00
381C00
381C00
381F80
380F80
ENDCHAR
STARTCHAR integral
ENCODING -1
SWIDTH 602 0
DWIDTH 19 0
BBX 15 30 2 -6
BITMAP
003C
007E
00DE
00DE
01CC
01C0
0180
0180
0380
0380
0380
0380
0380
0380
0380
0380
0380
0380
0380
0380
0380
0380
0300
0300
0700
0700
E600
F600
FC00
7800
ENDCHAR
STARTCHAR Omega
ENCODING -1
SWIDTH 602 0
DWIDTH 19 0
BBX 17 22 1 0
BITMAP
07F000
0FF800
3FFC00
3C1E00
780F00
700700
F00780
E00380
E00380
E00380
E00380
E00380
E00380
E00380
700700
700700
380E00
380E00
1C1C00
FE3F80
FE3F80
FE3F80
ENDCHAR
STARTCHAR radical
ENCODING -1
SWIDTH 602 0
DWIDTH 19 0
BBX 18 27 1 -1
BITMAP
0001C0
0001C0
000180
000380
000300
000300
000700
000600
000600
000E00
000E00
080C00
781C00
F81C00
5C1800
0C3800
0C3800
0E3000
067000
067000
066000
07E000
03E000
03C000
03C000
01C000
018000
ENDCHAR
STARTCHAR florin
ENCODING -1
SWIDTH 602 0
DWIDTH 19 0
BBX 19 31 0 -7
BITMAP
0003C0
000FE0
001FE0
001E20
003C00
003800
003800
003800
003800
007800
007000
07FF80
07FF80
07FF80
007000
007000
00E000
00E000
00E000
00E000
00E000
01C000
01C000
01C000
01C000
03C000
038000
878000
FF0000
FE0000
7C0000
ENDCHAR
STARTCHAR approxequal
ENCODING -1
SWIDTH 602 0
DWIDTH 19 0
BBX 17 11 1 4
BITMAP
3F0080
FFC180
FFFF80
C1FF80
803E00
000000
3F0080
FFC180
FFFF80
C1FF80
803E00
ENDCHAR
STARTCHAR Delta
ENCODING -1
SWIDTH 602 0
DWIDTH 19 0
BBX 19 22 0 0
BITMAP
00E000
01F000
01F000
01F000
03F800
03F800
03F800
07FC00
07BC00
0FBC00
0F1E00
0F1E00
1F1F00
1E0F00
1E0F00
3E0F80
3C0780
3C0780
7C07C0
7FFFC0
7FFFC0
FFFFE0
ENDCHAR
STARTCHAR ellipsis
ENCODING -1
SWIDTH 602 0
DWIDTH 19 0
BBX 16 5 1 0
BITMAP
F3CF
F3CF
F3CF
F3CF
F3CF
ENDCHAR
STARTCHAR OE
ENCODING -1
SWIDTH 602 0
DWIDTH 19 0
BBX 18 23 1 0
BITMAP
07FFC0
1FFFC0
3FFFC0
787000
707000
707000
E07000
E07000
E07000
E07F80
E07F80
E07F80
E07000
E07000
E07000
E07000
E07000
707000
707000
7C7000
3FFFC0
1FFFC0
07FFC0
ENDCHAR
STARTCHAR oe
ENCODING -1
SWIDTH 602 0
DWIDTH 19 0
BBX 19 18 0 0
BITMAP
1F0F80
3FDFC0
7FFFC0
70F9E0
E0F0E0
E070E0
E070E0
E07FE0
E07FE0
E07FE0
E07000
E07000
E07000
E0F000
70F860
7FDFE0
3FDFE0
1F0780
ENDCHAR
STARTCHAR endash
ENCODING -1
SWIDTH 602 0
DWIDTH 19 0
BBX 19 3 0 7
BITMAP
FFFFE0
FFFFE0
FFFFE0
ENDCHAR
STARTCHAR emdash
ENCODING -1
SWIDTH 602 0
DWIDTH 19 0
BBX 19 3 0 7
BITMAP
FFFFE0
FFFFE0
FFFFE0
ENDCHAR
STARTCHAR quotedblleft
ENCODING -1
SWIDTH 602 0
DWIDTH 19 0
BBX 13 9 3 15
BITMAP
0C18
1C38
3870
3870
70E0
F1E0
F1E0
F1E0
F1E0
ENDCHAR
STARTCHAR quotedblright
ENCODING -1
SWIDTH 602 0
DWIDTH 19 0
BBX 13 9 3 15
BITMAP
3C78
3C78
3C78
3C78
3870
70E0
70E0
E1C0
C180
ENDCHAR
STARTCHAR quoteleft
ENCODING -1
SWIDTH 602 0
DWIDTH 19 0
BBX 6 9 7 15
BITMAP
0C
1C
38
38
70
F0
F0
F0
F0
ENDCHAR
STARTCHAR quoteright
ENCODING -1
SWIDTH 602 0
DWIDTH 19 0
BBX 6 9 7 15
BITMAP
3C
3C
3C
3C
38
70
70
E0
C0
ENDCHAR
STARTCHAR lozenge
ENCODING -1
SWIDTH 602 0
DWIDTH 19 0
BBX 16 32 2 -6
BITMAP
0100
0180
0180
03C0
03C0
0660
0660
0C30
0C30
1818
1818
300C
300C
6006
6006
C003
C003
4003
6006
6006
300C
300C
1818
1818
0C30
0C30
0660
0660
03C0
03C0
0180
0180
ENDCHAR
STARTCHAR Ydieresis
ENCODING -1
SWIDTH 602 0
DWIDTH 19 0
BBX 17 29 1 0
BITMAP
0E3800
0E3800
0E3800
000000
000000
000000
F00780
700700
780F00
380E00
3C1E00
1C1C00
0E3800
0F7800
077000
07F000
03E000
03E000
01C000
01C000
01C000
01C000
01C000
01C000
01C000
01C000
01C000
01C000
01C000
ENDCHAR
STARTCHAR fraction
ENCODING -1
SWIDTH 602 0
DWIDTH 19 0
BBX 15 26 2 -3
BITMAP
000E
001C
001C
0038
0038
0070
0070
0070
00E0
00E0
01C0
01C0
0380
0380
0700
0700
0E00
0E00
1C00
1C00
1C00
3800
3800
7000
7000
E000
ENDCHAR
STARTCHAR guilsinglleft
ENCODING -1
SWIDTH 602 0
DWIDTH 19 0
BBX 7 14 5 3
BITMAP
02
06
0E
1C
38
70
E0
E0
70
38
1C
0E
06
02
ENDCHAR
STARTCHAR guilsinglright
ENCODING -1
SWIDTH 602 0
DWIDTH 19 0
BBX 7 14 7 3
BITMAP
80
C0
E0
70
38
1C
0E
0E
1C
38
70
E0
C0
80
ENDCHAR
STARTCHAR fi
ENCODING -1
SWIDTH 602 0
DWIDTH 19 0
BBX 16 24 1 0
BITMAP
03F7
0FF7
1FF7
1E07
1C00
1C00
FFFF
FFFF
FFFF
1C07
1C07
1C07
1C07
1C07
1C07
1C07
1C07
1C07
1C07
1C07
1C07
1C07
1C07
1C07
ENDCHAR
STARTCHAR fl
ENCODING -1
SWIDTH 602 0
DWIDTH 19 0
BBX 16 24 1 0
BITMAP
03FF
0FFF
1FFF
1E07
1C07
1C07
FFE7
FFE7
FFE7
1C07
1C07
1C07
1C07
1C07
1C07
1C07
1C07
1C07
1C07
1C07
1C07
1C07
1C07
1C07
ENDCHAR
STARTCHAR daggerdbl
ENCODING -1
SWIDTH 602 0
DWIDTH 19 0
BBX 15 26 2 -3
BITMAP
0380
0380
0380
0380
0380
0380
0380
FFFE
FFFE
FFFE
0380
0380
0380
0380
0380
0380
FFFE
FFFE
FFFE
0380
0380
0380
0380
0380
0380
0380
ENDCHAR
STARTCHAR quotesinglbase
ENCODING -1
SWIDTH 602 0
DWIDTH 19 0
BBX 6 9 6 -4
BITMAP
3C
3C
3C
3C
38
70
70
E0
C0
ENDCHAR
STARTCHAR quotedblbase
ENCODING -1
SWIDTH 602 0
DWIDTH 19 0
BBX 13 9 3 -4
BITMAP
3C78
3C78
3C78
3C78
3870
70E0
70E0
E1C0
C180
ENDCHAR
STARTCHAR perthousand
ENCODING -1
SWIDTH 602 0
DWIDTH 19 0
BBX 19 23 0 0
BITMAP
3E0000
7F0000
E38000
C18000
C18000
C18080
E38380
7F0F00
3E3C00
01F000
078000
1E0000
780000
600000
1F0F80
3F9FC0
71F8E0
60F060
60F060
60F060
71F8E0
3F9FC0
1F0F80
ENDCHAR
STARTCHAR dotlessi
ENCODING -1
SWIDTH 602 0
DWIDTH 19 0
BBX 15 18 2 0
BITMAP
3F80
3F80
3F80
0380
0380
0380
0380
0380
0380
0380
0380
0380
0380
0380
0380
FFFE
FFFE
FFFE
ENDCHAR
STARTCHAR circumflex
ENCODING -1
SWIDTH 602 0
DWIDTH 19 0
BBX 10 6 5 20
BITMAP
0C00
1E00
3F00
3300
6180
E1C0
ENDCHAR
STARTCHAR tilde
ENCODING -1
SWIDTH 602 0
DWIDTH 19 0
BBX 10 4 4 21
BITMAP
78C0
FCC0
CF80
C780
ENDCHAR
STARTCHAR breve
ENCODING -1
SWIDTH 602 0
DWIDTH 19 0
BBX 10 4 5 22
BITMAP
C0C0
E1C0
7F80
3F00
ENDCHAR
STARTCHAR dotaccent
ENCODING -1
SWIDTH 602 0
DWIDTH 19 0
BBX 3 3 8 21
BITMAP
E0
E0
E0
ENDCHAR
STARTCHAR ring
ENCODING -1
SWIDTH 602 0
DWIDTH 19 0
BBX 9 9 5 20
BITMAP
3E00
7F00
E380
C180
C180
C180
E380
7F00
3E00
ENDCHAR
STARTCHAR hungarumlaut
ENCODING -1
SWIDTH 602 0
DWIDTH 19 0
BBX 11 6 5 20
BITMAP
1CE0
38C0
3180
7380
6300
E600
ENDCHAR
STARTCHAR ogonek
ENCODING -1
SWIDTH 602 0
DWIDTH 19 0
BBX 6 6 7 -6
BITMAP
60
60
C0
C0
FC
7C
ENDCHAR
STARTCHAR caron
ENCODING -1
SWIDTH 602 0
DWIDTH 19 0
BBX 10 6 5 20
BITMAP
E1C0
6180
3300
3F00
1E00
0C00
ENDCHAR
STARTCHAR Lslash
ENCODING -1
SWIDTH 602 0
DWIDTH 19 0
BBX 17 23 0 0
BITMAP
1C0000
1C0000
1C0000
1C0000
1C0000
1C0000
1C2000
1C7000
1DE000
1F8000
1F0000
1C0000
3C0000
FC0000
DC0000
1C0000
1C0000
1C0000
1C0000
1C0000
1FFF80
1FFF80
1FFF80
ENDCHAR
STARTCHAR lslash
ENCODING -1
SWIDTH 602 0
DWIDTH 19 0
BBX 15 24 1 0
BITMAP
7F80
7F80
7F80
0380
0380
0380
0384
038E
03BC
03F0
03E0
0780
1F80
3F80
F380
C380
0380
0380
0380
0380
03C0
01FE
00FE
007E
ENDCHAR
STARTCHAR Scaron
ENCODING -1
SWIDTH 602 0
DWIDTH 19 0
BBX 15 30 2 0
BITMAP
1C38
0E70
07E0
03C0
0000
0000
0000
07F0
1FFC
7FFC
780C
F000
E000
E000
E000
F000
7C00
7FC0
1FF0
03FC
003C
001E
000E
000E
000E
001E
C03C
FFFC
FFF8
3FE0
ENDCHAR
STARTCHAR scaron
ENCODING -1
SWIDTH 602 0
DWIDTH 19 0
BBX 13 26 3 0
BITMAP
3870
1860
0CC0
0FC0
0780
0300
0000
0000
1FE0
7FF0
7FF0
F030
E000
E000
FC00
7FC0
3FF0
03F0
0078
0038
0038
8038
E0F8
FFF0
7FE0
1F80
ENDCHAR
STARTCHAR Zcaron
ENCODING -1
SWIDTH 602 0
DWIDTH 19 0
BBX 16 30 2 0
BITMAP
1C38
0E70
07E0
03C0
0000
0000
0000
FFFF
FFFF
FFFF
000E
001E
003C
0038
0078
00F0
00E0
01E0
03C0
0780
0780
0F00
1E00
1C00
3C00
7800
7000
FFFF
FFFF
FFFF
ENDCHAR
STARTCHAR zcaron
ENCODING -1
SWIDTH 602 0
DWIDTH 19 0
BBX 13 26 3 0
BITMAP
3870
1860
0CC0
0FC0
0780
0300
0000
0000
FFF8
FFF8
FFF8
00F0
00F0
01E0
03C0
0380
0780
0F00
1E00
1E00
3C00
7800
7000
FFF8
FFF8
FFF8
ENDCHAR
STARTCHAR minus
ENCODING -1
SWIDTH 602 0
DWIDTH 19 0
BBX 17 3 1 9
BITMAP
FFFF80
FFFF80
FFFF80
ENDCHAR
STARTCHAR Gbreve
ENCODING -1
SWIDTH 602 0
DWIDTH 19 0
BBX 16 30 2 0
BITMAP
1818
1C38
0FF0
07E0
0000
0000
0000
03F0
0FFC
1FFE
3E0E
3802
7000
7000
E000
E000
E000
E03F
E03F
E03F
E007
E007
E007
7007
7007
7807
3E0F
1FFF
0FFC
03F8
ENDCHAR
STARTCHAR gbreve
ENCODING -1
SWIDTH 602 0
DWIDTH 19 0
BBX 15 33 2 -7
BITMAP
1818
1C38
0FF0
07E0
0000
0000
0000
0000
0F8E
1FEE
3FFE
783E
701E
F01E
E00E
E00E
E00E
E00E
E00E
E00E
F01E
701E
783E
3FFE
1FEE
0F8E
000E
000E
001C
303C
3FF8
3FF0
0FC0
ENDCHAR
STARTCHAR Idotaccent
ENCODING -1
SWIDTH 602 0
DWIDTH 19 0
BBX 13 29 3 0
BITMAP
0700
0700
0700
0000
0000
0000
FFF8
FFF8
FFF8
0700
0700
0700
0700
0700
0700
0700
0700
0700
0700
0700
0700
0700
0700
0700
0700
0700
FFF8
FFF8
FFF8
ENDCHAR
STARTCHAR Scedilla
ENCODING -1
SWIDTH 602 0
DWIDTH 19 0
BBX 15 29 2 -6
BITMAP
07F0
1FFC
7FFC
780C
F000
E000
E000
E000
F000
7C00
7FC0
1FF0
03FC
003C
001E
000E
000E
000E
001E
C03C
FFFC
FFF8
3FE0
00C0
00C0
0060
0460
07E0
07C0
ENDCHAR
STARTCHAR scedilla
ENCODING -1
SWIDTH 602 0
DWIDTH 19 0
BBX 13 24 3 -6
BITMAP
1FE0
7FF0
7FF0
F030
E000
E000
FC00
7FC0
3FF0
03F0
0078
0038
0038
8038
E0F8
FFF0
7FE0
1F80
0180
0180
00C0
08C0
0FC0
0F80
ENDCHAR
STARTCHAR Cacute
ENCODING -1
SWIDTH 602 0
DWIDTH 19 0
BBX 15 30 2 0
BITMAP
0070
00E0
01C0
0380
0000
0000
0000
03F0
0FFC
1FFE
3E0E
3802
7000
7000
E000
E000
E000
E000
E000
E000
E000
E000
E000
7000
7000
3802
3E0E
1FFE
0FFC
03F0
ENDCHAR
STARTCHAR cacute
ENCODING -1
SWIDTH 602 0
DWIDTH 19 0
BBX 14 26 3 0
BITMAP
0070
00E0
01C0
0180
0300
0700
0000
0000
03F0
1FF8
3FFC
7C0C
7804
F000
E000
E000
E000
E000
E000
E000
F000
7804
7C0C
3FFC
1FF8
03F0
ENDCHAR
STARTCHAR Ccaron
ENCODING -1
SWIDTH 602 0
DWIDTH 19 0
BBX 15 30 2 0
BITMAP
0E1C
0738
03F0
01E0
0000
0000
0000
03F0
0FFC
1FFE
3E0E
3802
7000
7000
E000
E000
E000
E000
E000
E000
E000
E000
E000
7000
7000
3802
3E0E
1FFE
0FFC
03F0
ENDCHAR
STARTCHAR ccaron
ENCODING -1
SWIDTH 602 0
DWIDTH 19 0
BBX 14 26 3 0
BITMAP
1C38
0C30
0660
07E0
03C0
0180
0000
0000
03F0
1FF8
3FFC
7C0C
7804
F000
E000
E000
E000
E000
E000
E000
F000
7804
7C0C
3FFC
1FF8
03F0
ENDCHAR
STARTCHAR dcroat
ENCODING -1
SWIDTH 602 0
DWIDTH 19 0
BBX 18 24 2 0
BITMAP
000E00
000E00
01FFC0
01FFC0
000E00
000E00
0F8E00
1FEE00
3FFE00
783E00
701E00
F01E00
E00E00
E00E00
E00E00
E00E00
E00E00
E00E00
F01E00
701E00
783E00
3FFE00
1FEE00
0F8E00
ENDCHAR
STARTCHAR periodcentered
ENCODING -1
SWIDTH 602 0
DWIDTH 19 0
BBX 4 5 8 9
BITMAP
F0
F0
F0
F0
F0
ENDCHAR
STARTCHAR Euro
ENCODING -1
SWIDTH 602 0
DWIDTH 19 0
BBX 16 23 0 0
BITMAP
00FC
03FE
07FF
0F83
0E01
0E00
1C00
7FFC
FFF8
1C00
1C00
1C00
7FF0
FFE0
1C00
1C00
0E00
0E00
0F01
0783
03FF
01FE
007C
ENDCHAR
STARTCHAR c6459
ENCODING -1
SWIDTH 602 0
DWIDTH 19 0
BBX 9 3 5 20
BITMAP
E380
E380
E380
ENDCHAR
STARTCHAR c6460
ENCODING -1
SWIDTH 602 0
DWIDTH 19 0
BBX 6 4 7 20
BITMAP
1C
38
70
E0
ENDCHAR
STARTCHAR c6461
ENCODING -1
SWIDTH 602 0
DWIDTH 19 0
BBX 10 4 4 20
BITMAP
78C0
7CC0
CF80
C780
ENDCHAR
STARTCHAR c6468
ENCODING -1
SWIDTH 602 0
DWIDTH 19 0
BBX 6 4 6 20
BITMAP
E0
70
38
1C
ENDCHAR
STARTCHAR c6470
ENCODING -1
SWIDTH 602 0
DWIDTH 19 0
BBX 10 4 5 20
BITMAP
1E00
3F00
7380
E1C0
ENDCHAR
STARTCHAR c6472
ENCODING -1
SWIDTH 602 0
DWIDTH 19 0
BBX 10 4 5 20
BITMAP
E1C0
7380
3F00
1E00
ENDCHAR
STARTCHAR c6477
ENCODING -1
SWIDTH 602 0
DWIDTH 19 0
BBX 17 6 0 8
BITMAP
000380
003F80
03FE00
3FE000
FE0000
C00000
ENDCHAR
STARTCHAR c6478
ENCODING -1
SWIDTH 602 0
DWIDTH 19 0
BBX 10 13 4 10
BITMAP
0700
0F00
0F00
1B00
3300
3300
6300
C300
FFC0
FFC0
0300
0300
0300
ENDCHAR
STARTCHAR c6475
ENCODING -1
SWIDTH 602 0
DWIDTH 19 0
BBX 10 4 5 20
BITMAP
C0C0
E1C0
7F80
3F00
ENDCHAR
STARTCHAR c6476
ENCODING -1
SWIDTH 602 0
DWIDTH 19 0
BBX 3 3 8 20
BITMAP
E0
E0
E0
ENDCHAR
ENDFONT
